<svg id="Layer_1" data-name="Layer 1" xmlns="http://www.w3.org/2000/svg" viewBox="0 0 64 32.73"><defs><style>.cls-1{fill:#2c98f0;}</style></defs><title>coursera-icon</title><path class="cls-1" d="M51.34,5.68,48.9,5.57a16.49,16.49,0,0,0-14.82,8.5L27.65,25.44a7.71,7.71,0,0,1-7.06,3.88c-4.41,0-8-3.35-8-7.44s3.61-7.44,8-7.44a7.52,7.52,0,0,1,6.05,2.4L31.37,9A18.58,18.58,0,0,0,20.48,5.53c-9.73,0-17.64,7.27-17.64,16.3,0,7.59,5.63,14,13.28,15.77a19.47,19.47,0,0,0,4.35.53h.37c5.81-.1,11.32-2,14-6.85L42,18.48a7.46,7.46,0,0,1,4.41-3.56,9.24,9.24,0,0,1,2.7-.42c4.41,0,8,3.34,8,7.43s-3.6,7.45-8,7.45c-3.61,0-5.84-.9-8-3.56l-4.57,7.5a18.36,18.36,0,0,0,12.64,4.94c9.72,0,17.63-7.27,17.63-16.3,0-8.4-6.74-15.3-15.5-16.26Z" transform="translate(-2.84 -5.53)"/></svg>