<svg id="layer" xmlns="http://www.w3.org/2000/svg" viewBox="0 0 126.44 135.72"><defs><style>.cls-1{fill:#2c98f0;}.cls-2{fill:#fff;}</style></defs><title>datacamp-vector-logo</title><path class="cls-1" d="M71,143.84a5.37,5.37,0,0,1-2.1-.5l-50.7-28.1a4.53,4.53,0,0,1-2.2-3.3l-8.2-78.3a4.45,4.45,0,0,1,2.9-4.6L69,8.34a4.47,4.47,0,0,1,2.8,0l59.5,20.6a4.45,4.45,0,0,1,2.9,4.6l-9.5,78.3a4.7,4.7,0,0,1-2.1,3.3l-49.4,28.1a4.56,4.56,0,0,1-2.2.6Z" transform="translate(-7.8 -8.12)"/><path class="cls-2" d="M96.22,65.64c1.2-4.8,1-9.3-1.6-15.7,0,0,4.2,1.6,3.8-1.6s-5.1-6.7-8.5-8.9a39.43,39.43,0,0,0-11.2-4.3l1-2.4-.3-.1c-8.6-4.2-18.5-.4-18.6-.4l-.3.1,1,2.6a34.54,34.54,0,0,0-8.3,3.1c-23.4,12.5-11.5,37-4.3,42.9s3.9,17.7,0,28.5h31.4c.4-2,.1,1,1.5-7s7.1-5.1,11.5-5.3,3.7-3.4,3.7-6.9c2.2-1,2.2-2,.7-3.3,1.9-1.8,1.6-1.8.6-3.5s-.3-2.5-.3-2.5,3-.6,3.5-2.2c0-3.3-6.5-8.3-5.3-13.1Z" transform="translate(-7.8 -8.12)"/><path class="cls-1" d="M89.72,64.64,85.12,63c-.2.6-2.6,6.6-5.7,7.6l-2.9-3.9c-1.4,1.1-4.6,2.1-6.2,1.6v-.1h-.1l.1,10.8c-6.2.6-13.5-3.1-17.1-8.3l-3.9,2.9c-4.4-5.3-5.1-11.8-5.1-15.5h5.2a23.56,23.56,0,0,1,3.8-12.4l4,2.9a17.8,17.8,0,0,1,7.5-5.4h.1l-2.9-7.8c6.2-1.8,10.7-1.8,15.7.1a.52.52,0,0,1,.4.2l.1.1-.9,2.3a21.8,21.8,0,0,1,4.9,3l1.1-1.5a18.48,18.48,0,0,1,8.3,11.2l-1.7.6h0a23.7,23.7,0,0,1-.1,13.2Z" transform="translate(-7.8 -8.12)"/><path class="cls-2" d="M70,50.34a5.23,5.23,0,0,0-3.7,8.9,5.09,5.09,0,0,0,5.6,1.1,5.2,5.2,0,0,0-1.9-10Z" transform="translate(-7.8 -8.12)"/></svg>