<?xml version="1.0"?>
<svg xmlns="http://www.w3.org/2000/svg" id="Layer_5" enable-background="new 0 0 64 64" height="512px" viewBox="0 0 64 64" width="512px"><g><g><path d="m39 21c1.654 0 3-1.346 3-3s-1.346-3-3-3-3 1.346-3 3 1.346 3 3 3zm0-4c.552 0 1 .448 1 1s-.448 1-1 1-1-.448-1-1 .448-1 1-1z" data-original="#000000" class="active-path" data-old_color="#000000" fill="#FFFFFF"/><path d="m63 32v-4c0-1.654-1.346-3-3-3h-7.473c-.676-2.17-2.017-4.602-3.753-7 3.686-5.092 5.624-10.355 3.102-12.876-1.817-1.82-5.067-1.308-8.648.496-1-2.789-2.411-4.62-4.228-4.62-1.7 0-3.148 1.598-4.228 4.621-3.58-1.803-6.83-2.315-8.648-.497-1.277 1.276-1.409 3.257-.753 5.561-2.284-1.103-4.784-1.685-7.371-1.685-9.374 0-17 7.626-17 17 0 7.994 5.553 14.699 13 16.505v1.496c0 .537.153 1.034.401 1.471-.839.532-1.401 1.464-1.401 2.529v9.999c0 2.757 2.243 5 5 5s5-2.243 5-5v-9.999c0-1.065-.562-1.997-1.401-2.529.248-.437.401-.934.401-1.471v-1.483c4.472-1.076 8.298-3.922 10.624-7.857.419.217.888.339 1.376.339v4c-1.654 0-3 1.346-3 3v4c0 1.654 1.346 3 3 3v4c-1.654 0-3 1.346-3 3v4c0 1.654 1.346 3 3 3h26c1.654 0 3-1.346 3-3v-4c0-1.654-1.346-3-3-3v-4c1.654 0 3-1.346 3-3v-4c0-1.654-1.346-3-3-3v-4c1.654 0 3-1.346 3-3zm-3-5c.552 0 1 .448 1 1v4c0 .552-.448 1-1 1h-18.031c.474-.717.893-1.6 1.257-2.615 2.029 1.022 3.953 1.632 5.569 1.632 1.236 0 2.293-.354 3.081-1.142.951-.951 1.25-2.301 1.079-3.876h7.045zm-23.448 2.404c.813-.489 1.632-1.039 2.448-1.629.818.592 1.639 1.142 2.453 1.633-.767 2.299-1.69 3.592-2.453 3.592-.642 0-1.615-1.13-2.448-3.596zm-10.428 1.472c.369.37.802.635 1.28.822-1.978 3.255-5.541 5.302-9.404 5.302-6.065 0-11-4.935-11-11s4.935-11 11-11c3.981 0 7.576 2.126 9.536 5.558-2.517 4.219-3.511 8.22-1.412 10.318zm1.414-1.414c-1.318-1.318-.275-5.206 2.947-9.808 1.005 1.251 2.1 2.472 3.245 3.617s2.367 2.238 3.617 3.244c-4.603 3.221-8.492 4.265-9.809 2.947zm15.308-15.328c.096 1.212.154 2.497.154 3.866s-.058 2.654-.154 3.866c-1.294 1.294-2.587 2.434-3.846 3.425-1.262-.994-2.558-2.137-3.856-3.435s-2.442-2.594-3.435-3.856c.994-1.262 2.138-2.559 3.435-3.856 1.298-1.298 2.594-2.442 3.857-3.435 1.258.99 2.551 2.131 3.845 3.425zm-2.195-4.651c.461-.323.916-.63 1.36-.908.18.759.341 1.587.48 2.48-.603-.542-1.216-1.071-1.84-1.572zm4.325 6.935c.463.532.905 1.06 1.316 1.582-.411.522-.853 1.05-1.316 1.582.016-.526.024-1.054.024-1.582s-.008-1.056-.024-1.582zm-2.486 8.538c-.138.886-.298 1.708-.476 2.462-.445-.279-.898-.58-1.36-.903.621-.5 1.235-1.02 1.836-1.559zm7.972 4.506c-1.001 1.001-3.487.638-6.64-1.002.445-1.72.765-3.67.958-5.717.959-.991 1.881-2.026 2.735-3.089 3.222 4.601 4.265 8.49 2.947 9.808zm-1.695-23.483c.742 0 1.322.186 1.695.559 1.318 1.318.275 5.206-2.947 9.808-.854-1.062-1.776-2.098-2.735-3.089-.194-2.049-.514-4.001-.96-5.722 1.979-1.03 3.696-1.556 4.947-1.556zm-9.767-2.979c.763 0 1.686 1.294 2.454 3.595-.815.491-1.637 1.039-2.455 1.632-.816-.59-1.635-1.138-2.448-1.627.833-2.469 1.807-3.6 2.449-3.6zm-11.462 3.538c.373-.373.952-.559 1.695-.559 1.882 0 4.815 1.192 8.115 3.503-1.252 1.006-2.473 2.101-3.619 3.247-1.145 1.145-2.239 2.366-3.245 3.617-3.221-4.601-4.264-8.49-2.946-9.808zm-6.538 51.462c0 1.654-1.346 3-3 3s-3-1.346-3-3v-9.999c0-.552.448-1 1-1h1 2 1c.552 0 1 .448 1 1zm-1-13.999c0 .552-.448 1-1 1h-2c-.552 0-1-.448-1-1v-1.129c.657.077 1.322.128 2 .128.677 0 1.341-.054 2-.131zm-2-3.001c-8.271 0-15-6.729-15-15s6.729-15 15-15c3.101 0 6.064.94 8.589 2.709.701 1.401 1.596 2.851 2.638 4.291-.165.228-.325.455-.483.683-2.405-3.54-6.386-5.683-10.744-5.683-7.168 0-13 5.832-13 13s5.832 13 13 13c4.85 0 9.3-2.73 11.528-7.001.747-.035 1.551-.186 2.4-.445-2.242 5.646-7.705 9.446-13.928 9.446zm15.548-8.11c.325-.736.589-1.507.811-2.299.138-.066.277-.136.416-.206.376 1.05.798 1.918 1.258 2.615h-2.033c-.16 0-.314-.04-.452-.11zm27.452 23.11v4c0 .552-.448 1-1 1h-26c-.552 0-1-.448-1-1v-4c0-.552.448-1 1-1h26c.552 0 1 .448 1 1zm-3-3h-22v-4h22zm3-11v4c0 .552-.448 1-1 1h-26c-.552 0-1-.448-1-1v-4c0-.552.448-1 1-1h26c.552 0 1 .448 1 1zm-3-3h-22v-4h22z" data-original="#000000" class="active-path" data-old_color="#000000" fill="#FFFFFF"/><path d="m49 57h2v2h-2z" data-original="#000000" class="active-path" data-old_color="#000000" fill="#FFFFFF"/><path d="m53 57h2v2h-2z" data-original="#000000" class="active-path" data-old_color="#000000" fill="#FFFFFF"/><path d="m57 57h2v2h-2z" data-original="#000000" class="active-path" data-old_color="#000000" fill="#FFFFFF"/><path d="m39 43h2v2h-2z" data-original="#000000" class="active-path" data-old_color="#000000" fill="#FFFFFF"/><path d="m35 43h2v2h-2z" data-original="#000000" class="active-path" data-old_color="#000000" fill="#FFFFFF"/><path d="m43 43h2v2h-2z" data-original="#000000" class="active-path" data-old_color="#000000" fill="#FFFFFF"/><path d="m9 25h2v2h-2z" data-original="#000000" class="active-path" data-old_color="#000000" fill="#FFFFFF"/><path d="m21 25h2v2h-2z" data-original="#000000" class="active-path" data-old_color="#000000" fill="#FFFFFF"/><path d="m17 25h2v2h-2z" data-original="#000000" class="active-path" data-old_color="#000000" fill="#FFFFFF"/><path d="m13 25h2v2h-2z" data-original="#000000" class="active-path" data-old_color="#000000" fill="#FFFFFF"/></g></g> </svg>
