<?xml version="1.0"?>
<svg xmlns="http://www.w3.org/2000/svg" height="512px" viewBox="0 0 256 256" width="512px" class="hovered-paths"><g><path d="m127.8 171.228a2.5 2.5 0 0 1 -2.5-2.5v-28.979a2.5 2.5 0 0 1 5 0v28.979a2.5 2.5 0 0 1 -2.5 2.5z" fill="#ebe7f2" data-original="#EBE7F2"/><path d="m143.271 138.53-13.088-23.451a2.5 2.5 0 0 0 -4.366 0l-13.089 23.451a2.5 2.5 0 0 0 -.317 1.219v28.979a2.5 2.5 0 0 0 2.5 2.5h26.178a2.5 2.5 0 0 0 2.5-2.5v-28.979a2.5 2.5 0 0 0 -.318-1.219zm-20.335-8.03h10.128l3.767 6.749h-17.662zm5.064-9.072 2.273 4.072h-4.546zm-10.589 44.8v-23.979h21.178v23.979z" fill="#65c1d6" data-original="#65C1D6" class="active-path" style="fill:#2C98F0" data-old_color="#65c1d6"/><path d="m135.771 99.269a43.912 43.912 0 0 1 35.844 41.031 2.5 2.5 0 0 0 2.5 2.39h.112a2.5 2.5 0 0 0 2.388-2.607 49.02 49.02 0 0 0 -27.186-41.5h13.561a2.5 2.5 0 0 0 0-5h-27.173a2.945 2.945 0 0 0 -.046 5.69z" fill="#846f75" data-original="#846F75" class="" style="fill:#FFFFFF" data-old_color="#846f75"/><path d="m79.389 140.083a2.5 2.5 0 0 0 2.389 2.607h.111a2.5 2.5 0 0 0 2.5-2.391 43.844 43.844 0 0 1 36.211-41.099 2.5 2.5 0 0 0 2.049-2.814 2.447 2.447 0 0 0 .031-.31 2.5 2.5 0 0 0 -2.5-2.5h-27.171a2.5 2.5 0 0 0 0 5h13.546a48.932 48.932 0 0 0 -27.166 41.507z" fill="#846f75" data-original="#846F75" class="" style="fill:#FFFFFF" data-old_color="#846f75"/><path d="m35.947 171.228a2.5 2.5 0 0 0 2.5-2.5v-109.123a2.5 2.5 0 0 1 2.5-2.5h174.106a2.5 2.5 0 0 1 2.5 2.5v109.123a2.5 2.5 0 0 0 5 0v-109.123a7.509 7.509 0 0 0 -7.5-7.5h-174.106a7.509 7.509 0 0 0 -7.5 7.5v109.123a2.5 2.5 0 0 0 2.5 2.5z" fill="#846f75" data-original="#846F75" class="" style="fill:#FFFFFF" data-old_color="#846f75"/><path d="m51.368 69.728a2.5 2.5 0 0 0 -2.5 2.5v96.5a2.5 2.5 0 0 0 2.5 2.5h153.265a2.5 2.5 0 0 0 2.5-2.5v-96.5a2.5 2.5 0 0 0 -2.5-2.5zm150.765 96.5h-148.265v-91.5h148.265z" fill="#846f75" data-original="#846F75" class="" style="fill:#FFFFFF" data-old_color="#846f75"/><path d="m231.5 179.605h-207a7.509 7.509 0 0 0 -7.5 7.5v9.29a7.509 7.509 0 0 0 7.5 7.5h207a7.509 7.509 0 0 0 7.5-7.5v-9.29a7.509 7.509 0 0 0 -7.5-7.5zm2.5 16.795a2.5 2.5 0 0 1 -2.5 2.5h-207a2.5 2.5 0 0 1 -2.5-2.5v-9.29a2.5 2.5 0 0 1 2.5-2.5h207a2.5 2.5 0 0 1 2.5 2.5z" fill="#846f75" data-original="#846F75" class="" style="fill:#FFFFFF" data-old_color="#846f75"/><path d="m149.359 193.917h-42.719a2.5 2.5 0 0 1 0-5h42.719a2.5 2.5 0 0 1 0 5z" fill="#ebe7f2" data-original="#EBE7F2"/><g fill="#65c1d6"><path d="m84.436 106.021a10.318 10.318 0 1 1 10.316-10.321 10.33 10.33 0 0 1 -10.316 10.321zm0-15.635a5.318 5.318 0 1 0 5.316 5.314 5.323 5.323 0 0 0 -5.316-5.314z" data-original="#65C1D6" class="active-path" style="fill:#2C98F0" data-old_color="#65C1D6"/><path d="m170.808 106.021a10.318 10.318 0 1 1 10.317-10.321 10.329 10.329 0 0 1 -10.317 10.321zm0-15.635a5.318 5.318 0 1 0 5.317 5.317 5.324 5.324 0 0 0 -5.317-5.317z" data-original="#65C1D6" class="active-path" style="fill:#2C98F0" data-old_color="#65C1D6"/><path d="m128 106.021a10.318 10.318 0 1 1 10.317-10.321 10.329 10.329 0 0 1 -10.317 10.321zm0-15.635a5.318 5.318 0 1 0 5.317 5.317 5.323 5.323 0 0 0 -5.317-5.317z" data-original="#65C1D6" class="active-path" style="fill:#2C98F0" data-old_color="#65C1D6"/><path d="m81.842 158.324a10.317 10.317 0 1 1 10.317-10.317 10.328 10.328 0 0 1 -10.317 10.317zm0-15.634a5.317 5.317 0 1 0 5.317 5.317 5.323 5.323 0 0 0 -5.317-5.317z" data-original="#65C1D6" class="active-path" style="fill:#2C98F0" data-old_color="#65C1D6"/><path d="m174.158 158.324a10.317 10.317 0 1 1 10.317-10.317 10.328 10.328 0 0 1 -10.317 10.317zm0-15.634a5.317 5.317 0 1 0 5.317 5.317 5.323 5.323 0 0 0 -5.317-5.317z" data-original="#65C1D6" class="active-path" style="fill:#2C98F0" data-old_color="#65C1D6"/></g></g> </svg>
