<svg id="Layer_1" data-name="Layer 1" xmlns="http://www.w3.org/2000/svg" viewBox="0 0 384 416"><defs><style>.cls-1{fill:#2c98f0;}</style></defs><title>hackerrank</title><path class="cls-1" d="M215.94,47.18c27.15,5.64,134.75,67.29,153.6,88,8.64,26.26,8.62,149.36,0,175.66-18.72,20.66-126.4,82.37-153.59,88-27.17-5.6-134.8-67.29-153.55-88-8.56-26.37-8.56-149.34,0-175.68,18.7-20.69,126.35-82.38,153.54-88M216,15C187.6,15,48.56,94.73,34.53,119.05s-14,183.69,0,207.93S187.66,431,216,431s167.25-79.7,181.39-104,14.19-183.8,0-208v0C383.1,94.66,244.1,15,216,15Z" transform="translate(-24 -15)"/><rect class="cls-1" x="198.3" y="169.8" width="35.51" height="106.39" transform="translate(-31.63 423.35) rotate(-89.82)"/><rect class="cls-1" x="189.33" y="214.31" width="159.79" height="35.46" transform="translate(12.33 485.53) rotate(-89.82)"/><rect class="cls-1" x="74.08" y="205.1" width="177.54" height="35.46" transform="translate(-84.49 369.99) rotate(-89.82)"/><polygon class="cls-1" points="139.25 83.55 103.67 118.95 174.6 119.17 139.25 83.55"/><polygon class="cls-1" points="244.86 332.45 280.44 297.05 209.51 296.83 244.86 332.45"/></svg>