<svg xmlns="http://www.w3.org/2000/svg" viewBox="0 0 45 45"><defs><style>.cls-1{fill:#fff;}</style></defs><title>Asset 1@4x124</title><g id="Layer_2" data-name="Layer 2"><g id="Layer_1-2" data-name="Layer 1"><path class="cls-1" d="M15.14,17.25H8.25a.75.75,0,0,0-.53.22L4.94,20.25H4.36a2.25,2.25,0,1,0,0,1.5h.89a.75.75,0,0,0,.53-.22l2.78-2.78h6.58a2.22,2.22,0,0,0,3.59.93l3.06,1.7a2.21,2.21,0,0,0,0,.37,2.25,2.25,0,0,0,4.5,0,2.21,2.21,0,0,0,0-.37l3.06-1.7a2.24,2.24,0,1,0,2.23-3.79V12.61a2.24,2.24,0,1,0-2.23-3.79l-3.06-1.7a2.21,2.21,0,0,0,0-.37,2.25,2.25,0,0,0-4.5,0,2.21,2.21,0,0,0,0,.37l-3.06,1.7a2.22,2.22,0,0,0-3.59.93H8.56L5.78,7a.75.75,0,0,0-.53-.22H4.36a2.25,2.25,0,1,0,0,1.5h.58L7.72,11a.75.75,0,0,0,.53.22h6.89a2.24,2.24,0,0,0,1.36,1.36v.89H4.36a2.25,2.25,0,1,0,0,1.5H16.5v.89a2.19,2.19,0,0,0-1.36,1.36ZM2.25,21.75A.75.75,0,1,1,3,21,.76.76,0,0,1,2.25,21.75Zm0-13.5A.75.75,0,1,1,3,7.5.76.76,0,0,1,2.25,8.25Zm0,6.75A.75.75,0,1,1,3,14.25.76.76,0,0,1,2.25,15Zm15,3.75A.75.75,0,1,1,18,18,.76.76,0,0,1,17.25,18.75Zm1.48-6.57,3.06,1.7a1.73,1.73,0,0,0,0,.74l-3.06,1.7a2.07,2.07,0,0,0-.73-.43V12.61a2.24,2.24,0,0,0,.73-.43Zm10.54,4.14-3.06-1.7a1.73,1.73,0,0,0,0-.74l3.06-1.7a2.24,2.24,0,0,0,.73.43v3.28A2.07,2.07,0,0,0,29.27,16.32Zm-9.81,1.31,3.06-1.7a2.24,2.24,0,0,0,.73.43v3.28a2.24,2.24,0,0,0-.73.43l-3.06-1.7a1.73,1.73,0,0,0,0-.74ZM24,13.5a.75.75,0,1,1-.75.75A.76.76,0,0,1,24,13.5Zm.75,2.86a2.24,2.24,0,0,0,.73-.43l3.06,1.7a1.73,1.73,0,0,0,0,.74l-3.06,1.7a2.07,2.07,0,0,0-.73-.43Zm3.79-5.49-3.06,1.7a2.07,2.07,0,0,0-.73-.43V8.86a2.24,2.24,0,0,0,.73-.43l3.06,1.7a1.73,1.73,0,0,0,0,.74Zm-5.29,1.27a2.07,2.07,0,0,0-.73.43l-3.06-1.7a1.73,1.73,0,0,0,0-.74l3.06-1.7a2.24,2.24,0,0,0,.73.43ZM24,22.5a.75.75,0,1,1,.75-.75A.76.76,0,0,1,24,22.5Zm6.75-3.75A.75.75,0,1,1,31.5,18,.76.76,0,0,1,30.75,18.75Zm0-9a.75.75,0,1,1-.75.75A.76.76,0,0,1,30.75,9.75ZM24,6a.75.75,0,1,1-.75.75A.76.76,0,0,1,24,6ZM17.25,9.75a.75.75,0,1,1-.75.75A.76.76,0,0,1,17.25,9.75Z"/><path class="cls-1" d="M15.75,45h12a.76.76,0,0,0,.75-.75V39h9.75a.76.76,0,0,0,.75-.75v-9h5.25a.72.72,0,0,0,.6-.31.73.73,0,0,0,.12-.67l-3.74-12A16.84,16.84,0,0,0,10.17,7.84l1.26.81a15.42,15.42,0,0,1,12-7.12,15.37,15.37,0,0,1,16.28,15,.61.61,0,0,0,.11.35l3.39,10.86h-5a.76.76,0,0,0-.75.75v3H35.25A2.25,2.25,0,0,1,33,29.25H31.5A3.75,3.75,0,0,0,35.25,33H37.5v4.5H27.75a.76.76,0,0,0-.75.75V43.5H16.5v-.73a34.62,34.62,0,0,0-5.28-17.94,15.17,15.17,0,0,1-1.71-4l-1.45.38a16.58,16.58,0,0,0,1.88,4.42A33.18,33.18,0,0,1,15,42.77v1.48a.76.76,0,0,0,.75.75Z"/></g></g></svg>