<?xml version="1.0"?>
<svg xmlns="http://www.w3.org/2000/svg" id="Capa_1" enable-background="new 0 0 512 512" height="512px" viewBox="0 0 512 512" width="512px" class=""><g><g><g><path d="m469.823 83.814h-427.646l-34.666 42.01v324.773c0 10.824 8.775 19.599 19.599 19.599h457.78c10.824 0 19.599-8.775 19.599-19.599v-324.773z" fill="#f9f6f6" data-original="#F9F6F6" class=""/><g><path d="m343.933 290.76v118.471h29.012v-133.027c0-4.192-4.811-6.559-8.132-4.003l-18.91 14.557c-1.243.956-1.97 2.435-1.97 4.002z" fill="#fbbe66" data-original="#FBBE66"/></g><g><path d="m125.835 409.231h29.012v-51.849c0-4.193-4.814-6.561-8.135-4l-18.91 14.581c-1.24.956-1.967 2.434-1.967 4z" fill="#fc8086" data-original="#FC8086" class=""/></g><g><path d="m198.534 315.895v93.336h29.012v-108.04c0-4.203-4.834-6.567-8.152-3.987l-18.91 14.704c-1.23.957-1.95 2.428-1.95 3.987z" fill="#cbe2ff" data-original="#CBE2FF" class="active-path" style="fill:#69E781" data-old_color="#cbe2ff"/></g><path d="m271.233 326.567v82.665h29.012v-82.665c0-2.79-2.261-5.051-5.051-5.051h-18.91c-2.789 0-5.051 2.261-5.051 5.051z" fill="#d5b0ec" data-original="#D5B0EC" class=""/><path d="m469.823 83.814h-5.985v366.783c0 10.824-8.774 19.599-19.599 19.599h40.651c10.824 0 19.599-8.775 19.599-19.599v-324.773z" fill="#e7ecf1" data-original="#E7ECF1" class=""/><g><g><g><g><g><g><path d="m484.89 41.804h-457.78c-10.824 0-19.599 8.775-19.599 19.599v64.42h496.977v-64.42c.001-10.824-8.774-19.599-19.598-19.599z" fill="#fbbe66" data-original="#FBBE66"/><path d="m484.89 41.804h-40.651c10.824 0 19.599 8.775 19.599 19.599v64.42h40.651v-64.42c0-10.824-8.775-19.599-19.599-19.599z" fill="#fcb143" data-original="#FCB143" class="" style="fill:#FCB143"/><g fill="#61a2f9"><circle cx="375.326" cy="83.814" r="14.793" data-original="#61A2F9" class="" style="fill:#000000" data-old_color="#61A2F9"/><circle cx="436.752" cy="83.814" r="14.793" data-original="#61A2F9" class="" style="fill:#000000" data-old_color="#61A2F9"/></g></g></g></g></g></g></g></g><g><g><path d="m277.032 91.325c4.149 0 7.511-3.362 7.511-7.511s-3.363-7.511-7.511-7.511h-218.031c-4.149 0-7.511 3.363-7.511 7.511 0 4.149 3.363 7.511 7.511 7.511z" data-original="#000000" class="" style="fill:#FFFFFF" data-old_color="#000000"/><path d="m48.336 203.588v197.232c0 8.78 7.144 15.923 15.923 15.923h372.493c4.149 0 7.511-3.363 7.511-7.511s-3.362-7.511-7.511-7.511h-56.296v-125.518c0-10.423-11.966-16.308-20.226-9.954l-18.908 14.556c-3.069 2.361-4.901 6.082-4.901 9.955v110.96h-28.664v-75.154c0-6.926-5.635-12.562-12.562-12.562h-18.91c-6.926 0-12.562 5.635-12.562 12.562v75.154h-28.664v-100.529c0-10.436-12.013-16.341-20.274-9.917l-18.91 14.704c-3.083 2.396-4.851 6.011-4.851 9.917v85.825h-28.664v-44.338c0-10.424-11.98-16.315-20.233-9.948l-18.908 14.579c-3.065 2.361-4.894 6.08-4.894 9.95v29.758h-54.066c-.497 0-.901-.404-.901-.901v-197.232c0-4.149-3.363-7.511-7.511-7.511s-7.511 3.362-7.511 7.511zm303.108 88.383 13.99-10.769v120.518h-13.99zm-72.699 37.056h13.989v72.693h-13.989zm-72.699-11.929 13.99-10.878v95.5h-13.99zm-72.7 56.075 13.99-10.787v39.334h-13.99z" data-original="#000000" class="" style="fill:#FFFFFF" data-old_color="#000000"/><path d="m277.585 280.091-26.387-24.28c-9.941-9.15-24.922-9.8-35.623-1.551l-121.4 93.606c-3.285 2.533-3.895 7.25-1.361 10.535 2.52 3.268 7.235 3.906 10.535 1.361l121.4-93.606c4.887-3.768 11.733-3.473 16.278.708l26.387 24.281c9.942 9.148 24.924 9.801 35.618 1.554l111.631-85.933-3.725 24.15c-1.504 9.748 13.306 12.288 14.847 2.291l6.124-39.697c.922-5.976-3.523-11.434-9.535-11.768l-40.104-2.241c-9.936-.533-10.747 14.445-.837 14.999l22.875 1.278-110.444 85.02c-4.891 3.771-11.736 3.472-16.279-.707z" data-original="#000000" class="" style="fill:#FFFFFF" data-old_color="#000000"/><path d="m484.89 34.293h-457.78c-14.948 0-27.11 12.162-27.11 27.11v389.193c0 14.948 12.162 27.11 27.11 27.11h457.78c14.948 0 27.11-12.162 27.11-27.11v-23.807c0-4.149-3.362-7.511-7.511-7.511s-7.511 3.363-7.511 7.511v23.807c0 6.665-5.422 12.088-12.088 12.088h-457.78c-6.665 0-12.088-5.422-12.088-12.088v-317.261h23.267c4.149 0 7.511-3.363 7.511-7.511s-3.362-7.511-7.511-7.511h-23.266v-56.91c0-6.665 5.422-12.088 12.088-12.088h457.779c6.665 0 12.088 5.422 12.088 12.088v56.909h-423.573c-4.149 0-7.511 3.363-7.511 7.511s3.363 7.511 7.511 7.511h423.572v258.307c0 4.149 3.363 7.511 7.511 7.511 4.149 0 7.511-3.362 7.511-7.511 0-11.248 0-326.033 0-330.239.001-14.947-12.161-27.109-27.109-27.109z" data-original="#000000" class="" style="fill:#FFFFFF" data-old_color="#000000"/><path d="m397.63 83.814c0-12.299-10.005-22.304-22.304-22.304s-22.304 10.005-22.304 22.304 10.005 22.304 22.304 22.304 22.304-10.005 22.304-22.304zm-29.586 0c0-4.015 3.267-7.282 7.282-7.282s7.281 3.267 7.281 7.282-3.267 7.282-7.281 7.282c-4.015 0-7.282-3.267-7.282-7.282z" data-original="#000000" class="" style="fill:#FFFFFF" data-old_color="#000000"/><path d="m459.057 83.814c0-12.299-10.005-22.304-22.304-22.304s-22.304 10.005-22.304 22.304 10.005 22.304 22.304 22.304 22.304-10.005 22.304-22.304zm-29.586 0c0-4.015 3.267-7.282 7.281-7.282 4.015 0 7.282 3.267 7.282 7.282s-3.267 7.282-7.282 7.282c-4.014 0-7.281-3.267-7.281-7.282z" data-original="#000000" class="" style="fill:#FFFFFF" data-old_color="#000000"/></g></g></g></g> </svg>
